<?xml version="1.0" encoding="UTF-8" standalone="no"?>
<!-- Created with Inkscape (http://www.inkscape.org/) -->

<svg
   xmlns:dc="http://purl.org/dc/elements/1.1/"
   xmlns:cc="http://creativecommons.org/ns#"
   xmlns:rdf="http://www.w3.org/1999/02/22-rdf-syntax-ns#"
   xmlns:svg="http://www.w3.org/2000/svg"
   xmlns="http://www.w3.org/2000/svg"
   xmlns:sodipodi="http://sodipodi.sourceforge.net/DTD/sodipodi-0.dtd"
   xmlns:inkscape="http://www.inkscape.org/namespaces/inkscape"
   width="200mm"
   height="200mm"
   viewBox="0 0 708.66142 708.66141"
   id="svg2"
   version="1.1"
   inkscape:version="0.91pre4 r13712"
   sodipodi:docname="menu.svg">
  <defs
     id="defs4" />
  <sodipodi:namedview
     id="base"
     pagecolor="#ffffff"
     bordercolor="#666666"
     borderopacity="1.0"
     inkscape:pageopacity="0.0"
     inkscape:pageshadow="2"
     inkscape:zoom="0.35"
     inkscape:cx="-46.428571"
     inkscape:cy="520"
     inkscape:document-units="px"
     inkscape:current-layer="layer1"
     showgrid="false"
     inkscape:window-width="1600"
     inkscape:window-height="837"
     inkscape:window-x="-8"
     inkscape:window-y="-8"
     inkscape:window-maximized="1" />
  <metadata
     id="metadata7">
    <rdf:RDF>
      <cc:Work
         rdf:about="">
        <dc:format>image/svg+xml</dc:format>
        <dc:type
           rdf:resource="http://purl.org/dc/dcmitype/StillImage" />
        <dc:title></dc:title>
      </cc:Work>
    </rdf:RDF>
  </metadata>
  <g
     inkscape:label="Layer 1"
     inkscape:groupmode="layer"
     id="layer1"
     transform="translate(0,-343.70079)">
    <path
       style="opacity:1;fill:#696059;fill-opacity:1;stroke:none;stroke-width:2;stroke-miterlimit:4;stroke-dasharray:none;stroke-opacity:1"
       d="m 71.192134,418.41679 c -33.109352,0 -59.763563,26.65423 -59.763563,59.76357 0,33.10934 26.654211,59.76357 59.763563,59.76357 l 566.186336,0 c 33.10935,0 59.76354,-26.65423 59.76354,-59.76357 0,-33.10934 -26.65419,-59.76357 -59.76354,-59.76357 l -566.186336,0 z m 0,220.18382 c -33.109352,0 -59.763563,26.65421 -59.763563,59.76356 0,33.10935 26.654211,59.76357 59.763563,59.76357 l 566.186336,0 c 33.10935,0 59.76354,-26.65422 59.76354,-59.76357 0,-33.10935 -26.65419,-59.76356 -59.76354,-59.76356 l -566.186336,0 z m 0,220.18381 c -33.109352,0 -59.763563,26.65419 -59.763563,59.76367 0,33.10922 26.654211,59.76342 59.763563,59.76342 l 566.186336,0 c 33.10935,0 59.76354,-26.6542 59.76354,-59.76342 0,-33.10948 -26.65419,-59.76367 -59.76354,-59.76367 l -566.186336,0 z"
       id="rect4136"
       inkscape:connector-curvature="0" />
  </g>
</svg>
